<?xml version="1.0"?>
<svg xmlns="http://www.w3.org/2000/svg" xmlns:xlink="http://www.w3.org/1999/xlink" xmlns:svgjs="http://svgjs.com/svgjs" version="1.1" width="512" height="512" x="0" y="0" viewBox="0 0 510 510" style="enable-background:new 0 0 512 512" xml:space="preserve" class=""><g><g xmlns="http://www.w3.org/2000/svg" id="XMLID_525_"><path id="XMLID_1130_" d="m405 135c24.813 0 45-20.187 45-45 0-6.178-1.765-17.434-17.025-43.74-9.588-16.528-17.124-26.931-27.975-42.653-10.853 15.724-18.388 26.125-27.975 42.653-15.26 26.306-17.025 37.562-17.025 43.74 0 24.813 20.186 45 45 45z" fill="#ffffff" data-original="#000000" style="" class=""/><path id="XMLID_1147_" d="m433 195h-208v90c-15.808 0-133.431 0-150 0v-135h45v-150h-120v150h45v135h-45v90h75v47.571c-17.476 6.179-30 22.837-30 42.429 0 24.853 20.147 45 45 45s45-20.147 45-45c0-11.527-4.339-22.038-11.467-30h262.935c-7.128 7.962-11.468 18.473-11.468 30 0 24.853 20.147 45 45 45 24.852 0 45-20.147 45-45 0-19.592-12.524-36.25-30-42.429v-47.571h75c0-17.859 0-88.334 0-103 0-42.526-34.475-77-77-77zm-28 210h-300v-30h300z" fill="#ffffff" data-original="#000000" style="" class=""/><circle id="XMLID_1150_" cx="172.5" cy="232.5" r="52.5" fill="#ffffff" data-original="#000000" style="" class=""/></g></g></svg>
