<?xml version="1.0"?>
<svg xmlns="http://www.w3.org/2000/svg" xmlns:xlink="http://www.w3.org/1999/xlink" xmlns:svgjs="http://svgjs.com/svgjs" version="1.1" width="512" height="512" x="0" y="0" viewBox="0 0 24 24" style="enable-background:new 0 0 512 512" xml:space="preserve" class=""><g><path xmlns="http://www.w3.org/2000/svg" d="m19.79 8.58c-.18-.15-.45-.38-.48-.41-.01-.12.12-.48.2-.7.23-.65.52-1.47.08-2.22-.44-.76-1.29-.92-1.98-1.04-.23-.04-.6-.11-.64-.12-.07-.1-.13-.47-.18-.7-.12-.69-.28-1.55-1.04-1.98-.75-.44-1.57-.15-2.22.08-.22.08-.58.21-.63.22-.1-.05-.33-.32-.48-.5-.46-.54-1.03-1.21-1.92-1.21s-1.46.67-1.92 1.21c-.15.18-.38.45-.4.48-.13.01-.49-.12-.71-.2-.65-.23-1.47-.52-2.22-.08-.76.43-.92 1.29-1.04 1.98-.04.23-.11.6-.12.64-.1.07-.47.13-.7.18-.69.12-1.54.28-1.98 1.04-.44.75-.15 1.57.08 2.22.08.22.21.58.22.63-.05.1-.32.33-.5.48-.54.46-1.21 1.03-1.21 1.92s.67 1.46 1.21 1.92c.18.15.45.38.48.41.01.12-.12.48-.2.7-.23.65-.52 1.47-.08 2.22.44.76 1.29.92 1.98 1.04.23.04.6.11.64.12.07.1.13.47.18.7.12.69.28 1.55 1.04 1.98.75.44 1.57.15 2.22-.08.22-.08.58-.21.63-.22.1.05.33.32.48.5.46.54 1.03 1.21 1.92 1.21.47 0 .85-.19 1.17-.44-.33-.71-.54-1.47-.62-2.24-.05.06-.1.12-.15.17-.11.13-.28.32-.4.44-.12-.12-.29-.31-.4-.44-.38-.44-.81-.95-1.44-1.12-.16-.04-.33-.06-.49-.06-.48 0-.94.16-1.37.31-.14.05-.35.13-.51.17-.05-.16-.09-.39-.12-.54-.11-.59-.23-1.25-.7-1.72s-1.13-.6-1.72-.7c-.15-.03-.38-.07-.54-.12.04-.16.12-.37.17-.51.2-.57.42-1.21.25-1.86-.17-.63-.68-1.06-1.12-1.44-.13-.11-.32-.28-.44-.4.12-.12.31-.29.44-.4.44-.38.95-.81 1.12-1.44.17-.65-.05-1.29-.25-1.86-.05-.14-.13-.35-.17-.51.16-.05.39-.09.54-.12.59-.1 1.25-.23 1.72-.7s.6-1.13.7-1.72c.03-.15.07-.38.12-.54.16.04.37.12.52.17.56.2 1.2.43 1.85.25.63-.17 1.06-.68 1.44-1.12.11-.13.28-.32.4-.44.12.12.29.31.4.44.38.44.81.95 1.44 1.12.65.18 1.29-.05 1.86-.25.14-.05.35-.13.51-.17.05.16.09.39.12.54.11.59.23 1.25.7 1.72s1.13.6 1.72.7c.15.03.38.07.54.12-.04.16-.12.37-.17.51-.2.57-.42 1.21-.25 1.86.16.58.6.99 1.01 1.35.04-.01.08-.01.12-.01.87 0 1.71.15 2.49.44-.02-.86-.67-1.41-1.2-1.86z" fill="#ffffff" data-original="#000000" style="" class=""/><path xmlns="http://www.w3.org/2000/svg" d="m8.751 16c-.045 0-.09-.004-.136-.013-.408-.074-.677-.465-.603-.872l.033-.182c.054-.297-.044-.583-.27-.785-.225-.2-.523-.268-.811-.18-.396.118-.815-.106-.934-.504-.119-.396.106-.814.503-.934.791-.235 1.627-.049 2.241.499.614.55.893 1.361.745 2.172l-.033.183c-.064.363-.38.616-.735.616z" fill="#ffffff" data-original="#000000" style="" class=""/><circle xmlns="http://www.w3.org/2000/svg" cx="6.5" cy="8.5" r="1.5" fill="#ffffff" data-original="#000000" style="" class=""/><path xmlns="http://www.w3.org/2000/svg" d="m13.5 9c-1.38 0-2.5 1.12-2.5 2.5 0 .87.45 1.65 1.13 2.09.84-1.39 2.13-2.49 3.67-3.08-.38-.88-1.27-1.51-2.3-1.51z" fill="#ffffff" data-original="#000000" style="" class=""/><path xmlns="http://www.w3.org/2000/svg" d="m11.5 7.497c-.642 0-1.283-.236-1.771-.708-.298-.287-.306-.763-.019-1.06.29-.298.763-.305 1.061-.018.402.387 1.056.387 1.458 0 .298-.287.772-.28 1.061.018.288.298.279.773-.019 1.061-.488.471-1.129.707-1.771.707z" fill="#ffffff" data-original="#000000" style="" class=""/><circle xmlns="http://www.w3.org/2000/svg" cx="17" cy="17" r="1" fill="#ffffff" data-original="#000000" style="" class=""/><circle xmlns="http://www.w3.org/2000/svg" cx="20" cy="17" r="1" fill="#ffffff" data-original="#000000" style="" class=""/><path xmlns="http://www.w3.org/2000/svg" d="m20.158 24h-3.316c-1.073 0-1.947-.875-1.947-1.952v-.398c-1.195-1.078-1.895-2.579-1.895-4.105 0-3.057 2.468-5.545 5.5-5.545s5.5 2.488 5.5 5.545c0 1.525-.7 3.026-1.895 4.105v.397c0 1.078-.874 1.953-1.947 1.953zm-1.658-10c-1.93 0-3.5 1.59-3.5 3.545 0 1.065.561 2.127 1.499 2.84.249.189.396.484.396.796v.866l3.263-.047-.053-.818c0-.313.146-.607.396-.796.938-.714 1.499-1.776 1.499-2.841 0-1.955-1.57-3.545-3.5-3.545z" fill="#ffffff" data-original="#000000" style="" class=""/></g></svg>
