<?xml version="1.0"?>
<svg xmlns="http://www.w3.org/2000/svg" xmlns:xlink="http://www.w3.org/1999/xlink" xmlns:svgjs="http://svgjs.com/svgjs" version="1.1" width="512" height="512" x="0" y="0" viewBox="0 0 512.113 512.113" style="enable-background:new 0 0 512 512" xml:space="preserve" class=""><g><g xmlns="http://www.w3.org/2000/svg"><path d="m268.162 159.099-21.214 21.213 42.427 42.427-21.213 21.213-42.427-42.427-21.213 21.214 42.426 42.426-21.213 21.213-42.426-42.426-21.213 21.213 42.426 42.426-21.213 21.214-42.427-42.427-26.397 26.398 1.82 61.819-116.305 116.305 21.213 21.213 116.305-116.304 61.82 1.819 153.676-153.676z" fill="#ffffff" data-original="#000000" style="" class=""/><path d="m289.375 53.033-21.213 21.213 42.426 42.427-21.213 21.213 84.853 84.853 21.213-21.214 42.426 42.427 21.213-21.213z" fill="#ffffff" data-original="#000000" style="" class=""/><path d="m427.261 148.492 42.426-42.426 21.213 21.213 21.213-21.213-106.066-106.066-21.213 21.213 21.213 21.213-42.426 42.427z" fill="#ffffff" data-original="#000000" style="" class=""/></g></g></svg>
